<svg width="52" height="49" viewBox="0 0 52 49" fill="none" xmlns="http://www.w3.org/2000/svg">
<path d="M34.5894 2.2648C34.6563 2.0451 34.6797 1.81424 34.6582 1.58541C34.6368 1.35658 34.5709 1.13426 34.4644 0.93113C34.3579 0.728005 34.2127 0.548057 34.0373 0.40156C33.8619 0.255064 33.6596 0.144889 33.442 0.0773245C33.2245 0.00976026 32.9958 -0.0138694 32.7692 0.00778441C32.5426 0.0294382 32.3224 0.0959516 32.1212 0.203527C31.9201 0.311102 31.7418 0.457632 31.5968 0.634752C31.4517 0.811871 31.3426 1.01611 31.2756 1.23581L17.4106 46.7352C17.2755 47.1789 17.3204 47.6586 17.5356 48.0689C17.7508 48.4791 18.1185 48.7862 18.558 48.9227C18.9974 49.0591 19.4725 49.0137 19.8788 48.7965C20.2851 48.5792 20.5892 48.2079 20.7244 47.7642L34.5894 2.2648ZM15.0952 11.0112C15.2566 11.1737 15.3846 11.3668 15.472 11.5795C15.5594 11.7921 15.6043 12.02 15.6043 12.2502C15.6043 12.4803 15.5594 12.7083 15.472 12.9209C15.3846 13.1335 15.2566 13.3266 15.0952 13.4891L4.18687 24.5L15.0952 35.5109C15.4206 35.8395 15.6034 36.2851 15.6034 36.7498C15.6034 37.2145 15.4206 37.6602 15.0952 37.9888C14.7697 38.3174 14.3283 38.502 13.8681 38.502C13.4079 38.502 12.9665 38.3174 12.6411 37.9888L0.509171 25.739C0.347771 25.5764 0.219718 25.3833 0.132346 25.1707C0.0449739 24.9581 0 24.7302 0 24.5C0 24.2698 0.0449739 24.0419 0.132346 23.8293C0.219718 23.6167 0.347771 23.4236 0.509171 23.261L12.6411 11.0112C12.8021 10.8482 12.9933 10.7189 13.2039 10.6307C13.4144 10.5425 13.6401 10.4971 13.8681 10.4971C14.0961 10.4971 14.3218 10.5425 14.5324 10.6307C14.7429 10.7189 14.9342 10.8482 15.0952 11.0112ZM36.9048 11.0112C36.7434 11.1737 36.6154 11.3668 36.528 11.5795C36.4406 11.7921 36.3957 12.02 36.3957 12.2502C36.3957 12.4803 36.4406 12.7083 36.528 12.9209C36.6154 13.1335 36.7434 13.3266 36.9048 13.4891L47.8131 24.5L36.9048 35.5109C36.7437 35.6736 36.6159 35.8667 36.5287 36.0793C36.4415 36.2919 36.3966 36.5197 36.3966 36.7498C36.3966 36.9799 36.4415 37.2078 36.5287 37.4204C36.6159 37.633 36.7437 37.8261 36.9048 37.9888C37.066 38.1515 37.2573 38.2806 37.4678 38.3686C37.6783 38.4567 37.904 38.502 38.1319 38.502C38.3598 38.502 38.5854 38.4567 38.796 38.3686C39.0065 38.2806 39.1978 38.1515 39.3589 37.9888L51.4908 25.739C51.6522 25.5764 51.7803 25.3833 51.8677 25.1707C51.955 24.9581 52 24.7302 52 24.5C52 24.2698 51.955 24.0419 51.8677 23.8293C51.7803 23.6167 51.6522 23.4236 51.4908 23.261L39.3589 11.0112C39.198 10.8482 39.0067 10.7189 38.7961 10.6307C38.5856 10.5425 38.3599 10.4971 38.1319 10.4971C37.9039 10.4971 37.6782 10.5425 37.4676 10.6307C37.2571 10.7189 37.0658 10.8482 36.9048 11.0112Z" fill="#2A2A4E"/>
</svg>
