<svg width="72" height="72" viewBox="0 0 72 72" fill="none" xmlns="http://www.w3.org/2000/svg">
<path d="M36 0C16.12 0 0 16.12 0 36C0 55.88 16.12 72 36 72C39.32 72 42 69.32 42 66C42 64.44 41.4 63.04 40.44 61.96C39.52 60.92 38.92 59.52 38.92 58C38.92 54.68 41.6 52 44.92 52H52C63.04 52 72 43.04 72 32C72 14.32 55.88 0 36 0ZM14 36C10.68 36 8 33.32 8 30C8 26.68 10.68 24 14 24C17.32 24 20 26.68 20 30C20 33.32 17.32 36 14 36ZM26 20C22.68 20 20 17.32 20 14C20 10.68 22.68 8 26 8C29.32 8 32 10.68 32 14C32 17.32 29.32 20 26 20ZM46 20C42.68 20 40 17.32 40 14C40 10.68 42.68 8 46 8C49.32 8 52 10.68 52 14C52 17.32 49.32 20 46 20ZM58 36C54.68 36 52 33.32 52 30C52 26.68 54.68 24 58 24C61.32 24 64 26.68 64 30C64 33.32 61.32 36 58 36Z" fill="#2A2A4E"/>
</svg>
