<svg width="23" height="18" viewBox="0 0 23 18" fill="none" xmlns="http://www.w3.org/2000/svg">
<path d="M0.900391 5.124L11.3607 10.665C11.4656 10.7206 11.5821 10.7496 11.7004 10.7496C11.8187 10.7496 11.9352 10.7206 12.0401 10.665L22.5004 5.125V14.75C22.5004 15.5801 22.1886 16.3788 21.6289 16.9822C21.0691 17.5856 20.3039 17.948 19.4901 17.995L19.3095 18H4.0913C3.27626 18.0001 2.49209 17.6824 1.89966 17.1123C1.30722 16.5422 0.951444 15.7628 0.9053 14.934L0.900391 14.75V5.124ZM4.0913 6.97519e-09H19.3095C20.1245 -5.43467e-05 20.9087 0.317554 21.5011 0.887671C22.0936 1.45779 22.4493 2.23719 22.4955 3.066L22.5004 3.25V3.434L11.7004 9.154L0.900391 3.434V3.25C0.900337 2.41986 1.21217 1.62117 1.77192 1.01777C2.33167 0.414367 3.09691 0.0519987 3.91065 0.00500012L4.0913 6.97519e-09H19.3095H4.0913Z" fill="#6371EA"/>
</svg>
