<svg width="19" height="18" viewBox="0 0 19 18" fill="none" xmlns="http://www.w3.org/2000/svg">
<path fill-rule="evenodd" clip-rule="evenodd" d="M9.45 0C4.22887 0 0 4.12937 0 9.22764C0 13.3109 2.70506 16.7597 6.46144 17.9824C6.93394 18.0631 7.11112 17.7863 7.11112 17.5441C7.11112 17.3249 7.09931 16.5982 7.09931 15.8254C4.725 16.2522 4.11075 15.2602 3.92175 14.7412C3.81544 14.4759 3.35475 13.6569 2.95312 13.4378C2.62237 13.2647 2.14987 12.838 2.94131 12.8264C3.6855 12.8149 4.21706 13.4954 4.39425 13.7723C5.24475 15.1679 6.60319 14.7758 7.14656 14.5335C7.22925 13.9337 7.47731 13.53 7.749 13.2993C5.64637 13.0687 3.44925 12.2728 3.44925 8.74319C3.44925 7.73969 3.81544 6.9092 4.41787 6.26326C4.32337 6.03257 3.99262 5.08674 4.51237 3.81794C4.51237 3.81794 5.30381 3.57571 7.11112 4.76377C7.86712 4.55615 8.67037 4.45234 9.47362 4.45234C10.2769 4.45234 11.0801 4.55615 11.8361 4.76377C13.6434 3.56418 14.4349 3.81794 14.4349 3.81794C14.9546 5.08674 14.6239 6.03257 14.5294 6.26326C15.1318 6.9092 15.498 7.72815 15.498 8.74319C15.498 12.2843 13.2891 13.0687 11.1864 13.2993C11.529 13.5877 11.8243 14.1414 11.8243 15.0065C11.8243 16.2407 11.8125 17.2326 11.8125 17.5441C11.8125 17.7863 11.9897 18.0746 12.4622 17.9824C14.3382 17.3639 15.9683 16.1866 17.1231 14.6161C18.278 13.0456 18.8994 11.1611 18.9 9.22764C18.9 4.12937 14.6711 0 9.45 0Z" fill="#6371EA"/>
</svg>
