<svg width="19" height="18" viewBox="0 0 19 18" fill="none" xmlns="http://www.w3.org/2000/svg">
<g clip-path="url(#clip0_397_479)">
<path d="M0.900391 1.28925C0.900391 0.577125 1.49214 0 2.22227 0H17.5785C18.3086 0 18.9004 0.577125 18.9004 1.28925V16.7108C18.9004 17.4229 18.3086 18 17.5785 18H2.22227C1.49214 18 0.900391 17.4229 0.900391 16.7108V1.28925ZM6.46127 15.0682V6.94012H3.76014V15.0682H6.46127ZM5.11127 5.82975C6.05289 5.82975 6.63902 5.2065 6.63902 4.42575C6.62214 3.62812 6.05402 3.02175 5.12927 3.02175C4.20452 3.02175 3.60039 3.62925 3.60039 4.42575C3.60039 5.2065 4.18652 5.82975 5.09327 5.82975H5.11127ZM10.6328 15.0682V10.5289C10.6328 10.2859 10.6508 10.0429 10.7228 9.86962C10.9174 9.38475 11.3618 8.88187 12.1088 8.88187C13.0864 8.88187 13.4768 9.62663 13.4768 10.7201V15.0682H16.1779V10.4062C16.1779 7.90875 14.8459 6.74775 13.0684 6.74775C11.6351 6.74775 10.9928 7.53525 10.6328 8.08988V8.118H10.6148C10.6207 8.10861 10.6267 8.09923 10.6328 8.08988V6.94012H7.93277C7.96652 7.70288 7.93277 15.0682 7.93277 15.0682H10.6328Z" fill="#6371EA"/>
</g>
<defs>
<clipPath id="clip0_397_479">
<rect width="18" height="18" fill="white" transform="translate(0.900391)"/>
</clipPath>
</defs>
</svg>
